<mxfile host="app.diagrams.net" agent="Mozilla/5.0 (X11; Linux x86_64) AppleWebKit/537.36 (KHTML, like Gecko) Chrome/127.0.0.0 Safari/537.36" version="24.9.3">
  <diagram name="Page-1" id="4PgV7GgqshjbaTTK3NIf">
    <mxGraphModel dx="3024" dy="1308" grid="1" gridSize="10" guides="1" tooltips="1" connect="1" arrows="1" fold="1" page="1" pageScale="1" pageWidth="827" pageHeight="1169" math="0" shadow="0">
      <root>
        <mxCell id="0" />
        <mxCell id="1" parent="0" />
        <mxCell id="sM0PTsSEJLjZ3uQsItN0-1" value="User" style="shape=table;startSize=30;container=1;collapsible=1;childLayout=tableLayout;fixedRows=1;rowLines=0;fontStyle=1;align=center;resizeLast=1;html=1;" parent="1" vertex="1">
          <mxGeometry x="100" y="40" width="260" height="300" as="geometry" />
        </mxCell>
        <mxCell id="sM0PTsSEJLjZ3uQsItN0-2" value="" style="shape=tableRow;horizontal=0;startSize=0;swimlaneHead=0;swimlaneBody=0;fillColor=none;collapsible=0;dropTarget=0;points=[[0,0.5],[1,0.5]];portConstraint=eastwest;top=0;left=0;right=0;bottom=1;" parent="sM0PTsSEJLjZ3uQsItN0-1" vertex="1">
          <mxGeometry y="30" width="260" height="30" as="geometry" />
        </mxCell>
        <mxCell id="sM0PTsSEJLjZ3uQsItN0-3" value="PK" style="shape=partialRectangle;connectable=0;fillColor=none;top=0;left=0;bottom=0;right=0;fontStyle=1;overflow=hidden;whiteSpace=wrap;html=1;" parent="sM0PTsSEJLjZ3uQsItN0-2" vertex="1">
          <mxGeometry width="30" height="30" as="geometry">
            <mxRectangle width="30" height="30" as="alternateBounds" />
          </mxGeometry>
        </mxCell>
        <mxCell id="sM0PTsSEJLjZ3uQsItN0-4" value="user_id" style="shape=partialRectangle;connectable=0;fillColor=none;top=0;left=0;bottom=0;right=0;align=left;spacingLeft=6;fontStyle=5;overflow=hidden;whiteSpace=wrap;html=1;" parent="sM0PTsSEJLjZ3uQsItN0-2" vertex="1">
          <mxGeometry x="30" width="230" height="30" as="geometry">
            <mxRectangle width="230" height="30" as="alternateBounds" />
          </mxGeometry>
        </mxCell>
        <mxCell id="sM0PTsSEJLjZ3uQsItN0-5" value="" style="shape=tableRow;horizontal=0;startSize=0;swimlaneHead=0;swimlaneBody=0;fillColor=none;collapsible=0;dropTarget=0;points=[[0,0.5],[1,0.5]];portConstraint=eastwest;top=0;left=0;right=0;bottom=0;" parent="sM0PTsSEJLjZ3uQsItN0-1" vertex="1">
          <mxGeometry y="60" width="260" height="220" as="geometry" />
        </mxCell>
        <mxCell id="sM0PTsSEJLjZ3uQsItN0-6" value="" style="shape=partialRectangle;connectable=0;fillColor=none;top=0;left=0;bottom=0;right=0;editable=1;overflow=hidden;whiteSpace=wrap;html=1;" parent="sM0PTsSEJLjZ3uQsItN0-5" vertex="1">
          <mxGeometry width="30" height="220" as="geometry">
            <mxRectangle width="30" height="220" as="alternateBounds" />
          </mxGeometry>
        </mxCell>
        <mxCell id="sM0PTsSEJLjZ3uQsItN0-7" value="first_name: VARCHAR, NOT NULL&lt;div&gt;&lt;br&gt;&lt;div&gt;&lt;div&gt;last_name: VARCHAR, NOT NULL&lt;/div&gt;&lt;div&gt;&lt;br&gt;&lt;/div&gt;&lt;div&gt;email: VARCHAR, UNIQUE, NOT NULL&lt;/div&gt;&lt;div&gt;&lt;br&gt;&lt;/div&gt;&lt;div&gt;password_hash: VARCHAR, NOT NULL&lt;/div&gt;&lt;div&gt;&lt;br&gt;&lt;/div&gt;&lt;div&gt;phone_number: VARCHAR, NULL&lt;/div&gt;&lt;div&gt;&lt;br&gt;&lt;/div&gt;&lt;div&gt;role: ENUM (guest, host, admin), NOT NULL&lt;/div&gt;&lt;div&gt;&lt;br&gt;&lt;/div&gt;&lt;div&gt;created_at: TIMESTAMP, DEFAULT CURRENT_TIMESTAMP&lt;/div&gt;&lt;/div&gt;&lt;/div&gt;" style="shape=partialRectangle;connectable=0;fillColor=none;top=0;left=0;bottom=0;right=0;align=left;spacingLeft=6;overflow=hidden;whiteSpace=wrap;html=1;" parent="sM0PTsSEJLjZ3uQsItN0-5" vertex="1">
          <mxGeometry x="30" width="230" height="220" as="geometry">
            <mxRectangle width="230" height="220" as="alternateBounds" />
          </mxGeometry>
        </mxCell>
        <mxCell id="sM0PTsSEJLjZ3uQsItN0-8" value="" style="shape=tableRow;horizontal=0;startSize=0;swimlaneHead=0;swimlaneBody=0;fillColor=none;collapsible=0;dropTarget=0;points=[[0,0.5],[1,0.5]];portConstraint=eastwest;top=0;left=0;right=0;bottom=0;" parent="sM0PTsSEJLjZ3uQsItN0-1" vertex="1">
          <mxGeometry y="280" width="260" height="20" as="geometry" />
        </mxCell>
        <mxCell id="sM0PTsSEJLjZ3uQsItN0-9" value="" style="shape=partialRectangle;connectable=0;fillColor=none;top=0;left=0;bottom=0;right=0;editable=1;overflow=hidden;whiteSpace=wrap;html=1;" parent="sM0PTsSEJLjZ3uQsItN0-8" vertex="1">
          <mxGeometry width="30" height="20" as="geometry">
            <mxRectangle width="30" height="20" as="alternateBounds" />
          </mxGeometry>
        </mxCell>
        <mxCell id="sM0PTsSEJLjZ3uQsItN0-10" value="" style="shape=partialRectangle;connectable=0;fillColor=none;top=0;left=0;bottom=0;right=0;align=left;spacingLeft=6;overflow=hidden;whiteSpace=wrap;html=1;" parent="sM0PTsSEJLjZ3uQsItN0-8" vertex="1">
          <mxGeometry x="30" width="230" height="20" as="geometry">
            <mxRectangle width="230" height="20" as="alternateBounds" />
          </mxGeometry>
        </mxCell>
        <mxCell id="sM0PTsSEJLjZ3uQsItN0-14" value="Property" style="shape=table;startSize=30;container=1;collapsible=1;childLayout=tableLayout;fixedRows=1;rowLines=0;fontStyle=1;align=center;resizeLast=1;html=1;" parent="1" vertex="1">
          <mxGeometry x="1180" y="480" width="300.0000000000002" height="300" as="geometry" />
        </mxCell>
        <mxCell id="sM0PTsSEJLjZ3uQsItN0-15" value="" style="shape=tableRow;horizontal=0;startSize=0;swimlaneHead=0;swimlaneBody=0;fillColor=none;collapsible=0;dropTarget=0;points=[[0,0.5],[1,0.5]];portConstraint=eastwest;top=0;left=0;right=0;bottom=1;" parent="sM0PTsSEJLjZ3uQsItN0-14" vertex="1">
          <mxGeometry y="30" width="300.0000000000002" height="30" as="geometry" />
        </mxCell>
        <mxCell id="sM0PTsSEJLjZ3uQsItN0-16" value="PK" style="shape=partialRectangle;connectable=0;fillColor=none;top=0;left=0;bottom=0;right=0;fontStyle=1;overflow=hidden;whiteSpace=wrap;html=1;" parent="sM0PTsSEJLjZ3uQsItN0-15" vertex="1">
          <mxGeometry width="30" height="30" as="geometry">
            <mxRectangle width="30" height="30" as="alternateBounds" />
          </mxGeometry>
        </mxCell>
        <mxCell id="sM0PTsSEJLjZ3uQsItN0-17" value="property_id" style="shape=partialRectangle;connectable=0;fillColor=none;top=0;left=0;bottom=0;right=0;align=left;spacingLeft=6;fontStyle=5;overflow=hidden;whiteSpace=wrap;html=1;" parent="sM0PTsSEJLjZ3uQsItN0-15" vertex="1">
          <mxGeometry x="30" width="270.0000000000002" height="30" as="geometry">
            <mxRectangle width="270.0000000000002" height="30" as="alternateBounds" />
          </mxGeometry>
        </mxCell>
        <mxCell id="sM0PTsSEJLjZ3uQsItN0-18" value="" style="shape=tableRow;horizontal=0;startSize=0;swimlaneHead=0;swimlaneBody=0;fillColor=none;collapsible=0;dropTarget=0;points=[[0,0.5],[1,0.5]];portConstraint=eastwest;top=0;left=0;right=0;bottom=0;" parent="sM0PTsSEJLjZ3uQsItN0-14" vertex="1">
          <mxGeometry y="60" width="300.0000000000002" height="220" as="geometry" />
        </mxCell>
        <mxCell id="sM0PTsSEJLjZ3uQsItN0-19" value="" style="shape=partialRectangle;connectable=0;fillColor=none;top=0;left=0;bottom=0;right=0;editable=1;overflow=hidden;whiteSpace=wrap;html=1;" parent="sM0PTsSEJLjZ3uQsItN0-18" vertex="1">
          <mxGeometry width="30" height="220" as="geometry">
            <mxRectangle width="30" height="220" as="alternateBounds" />
          </mxGeometry>
        </mxCell>
        <mxCell id="sM0PTsSEJLjZ3uQsItN0-20" value="&lt;div&gt;host_id: Foreign Key, references User(user_id)&lt;/div&gt;&lt;div&gt;&lt;br&gt;&lt;/div&gt;&lt;div&gt;name: VARCHAR, NOT NULL&lt;/div&gt;&lt;div&gt;&lt;br&gt;&lt;/div&gt;&lt;div&gt;description: TEXT, NOT NULL&lt;/div&gt;&lt;div&gt;&lt;br&gt;&lt;/div&gt;&lt;div&gt;location: VARCHAR, NOT NULL&lt;/div&gt;&lt;div&gt;&lt;br&gt;&lt;/div&gt;&lt;div&gt;pricepernight: DECIMAL, NOT NULL&lt;/div&gt;&lt;div&gt;&lt;br&gt;&lt;/div&gt;&lt;div&gt;created_at: TIMESTAMP, DEFAULT CURRENT_TIMESTAMP&lt;/div&gt;&lt;div&gt;&lt;br&gt;&lt;/div&gt;&lt;div&gt;updated_at: TIMESTAMP, ON UPDATE CURRENT_TIMESTAMP&lt;/div&gt;&lt;div&gt;&lt;br&gt;&lt;/div&gt;" style="shape=partialRectangle;connectable=0;fillColor=none;top=0;left=0;bottom=0;right=0;align=left;spacingLeft=6;overflow=hidden;whiteSpace=wrap;html=1;" parent="sM0PTsSEJLjZ3uQsItN0-18" vertex="1">
          <mxGeometry x="30" width="270.0000000000002" height="220" as="geometry">
            <mxRectangle width="270.0000000000002" height="220" as="alternateBounds" />
          </mxGeometry>
        </mxCell>
        <mxCell id="sM0PTsSEJLjZ3uQsItN0-21" value="" style="shape=tableRow;horizontal=0;startSize=0;swimlaneHead=0;swimlaneBody=0;fillColor=none;collapsible=0;dropTarget=0;points=[[0,0.5],[1,0.5]];portConstraint=eastwest;top=0;left=0;right=0;bottom=0;" parent="sM0PTsSEJLjZ3uQsItN0-14" vertex="1">
          <mxGeometry y="280" width="300.0000000000002" height="20" as="geometry" />
        </mxCell>
        <mxCell id="sM0PTsSEJLjZ3uQsItN0-22" value="" style="shape=partialRectangle;connectable=0;fillColor=none;top=0;left=0;bottom=0;right=0;editable=1;overflow=hidden;whiteSpace=wrap;html=1;" parent="sM0PTsSEJLjZ3uQsItN0-21" vertex="1">
          <mxGeometry width="30" height="20" as="geometry">
            <mxRectangle width="30" height="20" as="alternateBounds" />
          </mxGeometry>
        </mxCell>
        <mxCell id="sM0PTsSEJLjZ3uQsItN0-23" value="" style="shape=partialRectangle;connectable=0;fillColor=none;top=0;left=0;bottom=0;right=0;align=left;spacingLeft=6;overflow=hidden;whiteSpace=wrap;html=1;" parent="sM0PTsSEJLjZ3uQsItN0-21" vertex="1">
          <mxGeometry x="30" width="270.0000000000002" height="20" as="geometry">
            <mxRectangle width="270.0000000000002" height="20" as="alternateBounds" />
          </mxGeometry>
        </mxCell>
        <mxCell id="sM0PTsSEJLjZ3uQsItN0-24" value="Booking" style="shape=table;startSize=30;container=1;collapsible=1;childLayout=tableLayout;fixedRows=1;rowLines=0;fontStyle=1;align=center;resizeLast=1;html=1;" parent="1" vertex="1">
          <mxGeometry x="760" y="585" width="260" height="370" as="geometry" />
        </mxCell>
        <mxCell id="sM0PTsSEJLjZ3uQsItN0-25" value="" style="shape=tableRow;horizontal=0;startSize=0;swimlaneHead=0;swimlaneBody=0;fillColor=none;collapsible=0;dropTarget=0;points=[[0,0.5],[1,0.5]];portConstraint=eastwest;top=0;left=0;right=0;bottom=1;" parent="sM0PTsSEJLjZ3uQsItN0-24" vertex="1">
          <mxGeometry y="30" width="260" height="30" as="geometry" />
        </mxCell>
        <mxCell id="sM0PTsSEJLjZ3uQsItN0-26" value="PK" style="shape=partialRectangle;connectable=0;fillColor=none;top=0;left=0;bottom=0;right=0;fontStyle=1;overflow=hidden;whiteSpace=wrap;html=1;" parent="sM0PTsSEJLjZ3uQsItN0-25" vertex="1">
          <mxGeometry width="30" height="30" as="geometry">
            <mxRectangle width="30" height="30" as="alternateBounds" />
          </mxGeometry>
        </mxCell>
        <mxCell id="sM0PTsSEJLjZ3uQsItN0-27" value="booking_id" style="shape=partialRectangle;connectable=0;fillColor=none;top=0;left=0;bottom=0;right=0;align=left;spacingLeft=6;fontStyle=5;overflow=hidden;whiteSpace=wrap;html=1;" parent="sM0PTsSEJLjZ3uQsItN0-25" vertex="1">
          <mxGeometry x="30" width="230" height="30" as="geometry">
            <mxRectangle width="230" height="30" as="alternateBounds" />
          </mxGeometry>
        </mxCell>
        <mxCell id="sM0PTsSEJLjZ3uQsItN0-28" value="" style="shape=tableRow;horizontal=0;startSize=0;swimlaneHead=0;swimlaneBody=0;fillColor=none;collapsible=0;dropTarget=0;points=[[0,0.5],[1,0.5]];portConstraint=eastwest;top=0;left=0;right=0;bottom=0;" parent="sM0PTsSEJLjZ3uQsItN0-24" vertex="1">
          <mxGeometry y="60" width="260" height="260" as="geometry" />
        </mxCell>
        <mxCell id="sM0PTsSEJLjZ3uQsItN0-29" value="" style="shape=partialRectangle;connectable=0;fillColor=none;top=0;left=0;bottom=0;right=0;editable=1;overflow=hidden;whiteSpace=wrap;html=1;" parent="sM0PTsSEJLjZ3uQsItN0-28" vertex="1">
          <mxGeometry width="30" height="260" as="geometry">
            <mxRectangle width="30" height="260" as="alternateBounds" />
          </mxGeometry>
        </mxCell>
        <mxCell id="sM0PTsSEJLjZ3uQsItN0-30" value="&lt;div&gt;property_id: Foreign Key, references Property(property_id)&lt;/div&gt;&lt;div&gt;&lt;br&gt;&lt;/div&gt;&lt;div&gt;user_id: Foreign Key, references User(user_id)&lt;/div&gt;&lt;div&gt;&lt;br&gt;&lt;/div&gt;&lt;div&gt;start_date: DATE, NOT NULL&lt;/div&gt;&lt;div&gt;&lt;br&gt;&lt;/div&gt;&lt;div&gt;end_date: DATE, NOT NULL&lt;/div&gt;&lt;div&gt;&lt;br&gt;&lt;/div&gt;&lt;div&gt;total_price: DECIMAL, NOT NULL&lt;/div&gt;&lt;div&gt;&lt;br&gt;&lt;/div&gt;&lt;div&gt;status: ENUM (pending, confirmed, canceled), NOT NULL&lt;/div&gt;&lt;div&gt;&lt;br&gt;&lt;/div&gt;&lt;div&gt;created_at: TIMESTAMP, DEFAULT CURRENT_TIMESTAMP&lt;/div&gt;&lt;div&gt;&lt;br&gt;&lt;/div&gt;" style="shape=partialRectangle;connectable=0;fillColor=none;top=0;left=0;bottom=0;right=0;align=left;spacingLeft=6;overflow=hidden;whiteSpace=wrap;html=1;" parent="sM0PTsSEJLjZ3uQsItN0-28" vertex="1">
          <mxGeometry x="30" width="230" height="260" as="geometry">
            <mxRectangle width="230" height="260" as="alternateBounds" />
          </mxGeometry>
        </mxCell>
        <mxCell id="sM0PTsSEJLjZ3uQsItN0-31" value="" style="shape=tableRow;horizontal=0;startSize=0;swimlaneHead=0;swimlaneBody=0;fillColor=none;collapsible=0;dropTarget=0;points=[[0,0.5],[1,0.5]];portConstraint=eastwest;top=0;left=0;right=0;bottom=0;" parent="sM0PTsSEJLjZ3uQsItN0-24" vertex="1">
          <mxGeometry y="320" width="260" height="50" as="geometry" />
        </mxCell>
        <mxCell id="sM0PTsSEJLjZ3uQsItN0-32" value="" style="shape=partialRectangle;connectable=0;fillColor=none;top=0;left=0;bottom=0;right=0;editable=1;overflow=hidden;whiteSpace=wrap;html=1;" parent="sM0PTsSEJLjZ3uQsItN0-31" vertex="1">
          <mxGeometry width="30" height="50" as="geometry">
            <mxRectangle width="30" height="50" as="alternateBounds" />
          </mxGeometry>
        </mxCell>
        <mxCell id="sM0PTsSEJLjZ3uQsItN0-33" value="" style="shape=partialRectangle;connectable=0;fillColor=none;top=0;left=0;bottom=0;right=0;align=left;spacingLeft=6;overflow=hidden;whiteSpace=wrap;html=1;" parent="sM0PTsSEJLjZ3uQsItN0-31" vertex="1">
          <mxGeometry x="30" width="230" height="50" as="geometry">
            <mxRectangle width="230" height="50" as="alternateBounds" />
          </mxGeometry>
        </mxCell>
        <mxCell id="sM0PTsSEJLjZ3uQsItN0-34" value="Payment" style="shape=table;startSize=30;container=1;collapsible=1;childLayout=tableLayout;fixedRows=1;rowLines=0;fontStyle=1;align=center;resizeLast=1;html=1;" parent="1" vertex="1">
          <mxGeometry x="80" y="640" width="260" height="240" as="geometry" />
        </mxCell>
        <mxCell id="sM0PTsSEJLjZ3uQsItN0-35" value="" style="shape=tableRow;horizontal=0;startSize=0;swimlaneHead=0;swimlaneBody=0;fillColor=none;collapsible=0;dropTarget=0;points=[[0,0.5],[1,0.5]];portConstraint=eastwest;top=0;left=0;right=0;bottom=1;" parent="sM0PTsSEJLjZ3uQsItN0-34" vertex="1">
          <mxGeometry y="30" width="260" height="30" as="geometry" />
        </mxCell>
        <mxCell id="sM0PTsSEJLjZ3uQsItN0-36" value="PK" style="shape=partialRectangle;connectable=0;fillColor=none;top=0;left=0;bottom=0;right=0;fontStyle=1;overflow=hidden;whiteSpace=wrap;html=1;" parent="sM0PTsSEJLjZ3uQsItN0-35" vertex="1">
          <mxGeometry width="30" height="30" as="geometry">
            <mxRectangle width="30" height="30" as="alternateBounds" />
          </mxGeometry>
        </mxCell>
        <mxCell id="sM0PTsSEJLjZ3uQsItN0-37" value="payment_id" style="shape=partialRectangle;connectable=0;fillColor=none;top=0;left=0;bottom=0;right=0;align=left;spacingLeft=6;fontStyle=5;overflow=hidden;whiteSpace=wrap;html=1;" parent="sM0PTsSEJLjZ3uQsItN0-35" vertex="1">
          <mxGeometry x="30" width="230" height="30" as="geometry">
            <mxRectangle width="230" height="30" as="alternateBounds" />
          </mxGeometry>
        </mxCell>
        <mxCell id="sM0PTsSEJLjZ3uQsItN0-38" value="" style="shape=tableRow;horizontal=0;startSize=0;swimlaneHead=0;swimlaneBody=0;fillColor=none;collapsible=0;dropTarget=0;points=[[0,0.5],[1,0.5]];portConstraint=eastwest;top=0;left=0;right=0;bottom=0;" parent="sM0PTsSEJLjZ3uQsItN0-34" vertex="1">
          <mxGeometry y="60" width="260" height="160" as="geometry" />
        </mxCell>
        <mxCell id="sM0PTsSEJLjZ3uQsItN0-39" value="" style="shape=partialRectangle;connectable=0;fillColor=none;top=0;left=0;bottom=0;right=0;editable=1;overflow=hidden;whiteSpace=wrap;html=1;" parent="sM0PTsSEJLjZ3uQsItN0-38" vertex="1">
          <mxGeometry width="30" height="160" as="geometry">
            <mxRectangle width="30" height="160" as="alternateBounds" />
          </mxGeometry>
        </mxCell>
        <mxCell id="sM0PTsSEJLjZ3uQsItN0-40" value="&lt;div&gt;&lt;div&gt;booking_id: Foreign Key, references Booking(booking_id)&lt;/div&gt;&lt;div&gt;&lt;br&gt;&lt;/div&gt;&lt;div&gt;amount: DECIMAL, NOT NULL&lt;/div&gt;&lt;div&gt;&lt;br&gt;&lt;/div&gt;&lt;div&gt;payment_date: TIMESTAMP, DEFAULT CURRENT_TIMESTAMP&lt;/div&gt;&lt;div&gt;&lt;br&gt;&lt;/div&gt;&lt;div&gt;payment_method: ENUM (credit_card, paypal, stripe), NOT NULL&lt;/div&gt;&lt;/div&gt;" style="shape=partialRectangle;connectable=0;fillColor=none;top=0;left=0;bottom=0;right=0;align=left;spacingLeft=6;overflow=hidden;whiteSpace=wrap;html=1;" parent="sM0PTsSEJLjZ3uQsItN0-38" vertex="1">
          <mxGeometry x="30" width="230" height="160" as="geometry">
            <mxRectangle width="230" height="160" as="alternateBounds" />
          </mxGeometry>
        </mxCell>
        <mxCell id="sM0PTsSEJLjZ3uQsItN0-41" value="" style="shape=tableRow;horizontal=0;startSize=0;swimlaneHead=0;swimlaneBody=0;fillColor=none;collapsible=0;dropTarget=0;points=[[0,0.5],[1,0.5]];portConstraint=eastwest;top=0;left=0;right=0;bottom=0;" parent="sM0PTsSEJLjZ3uQsItN0-34" vertex="1">
          <mxGeometry y="220" width="260" height="20" as="geometry" />
        </mxCell>
        <mxCell id="sM0PTsSEJLjZ3uQsItN0-42" value="" style="shape=partialRectangle;connectable=0;fillColor=none;top=0;left=0;bottom=0;right=0;editable=1;overflow=hidden;whiteSpace=wrap;html=1;" parent="sM0PTsSEJLjZ3uQsItN0-41" vertex="1">
          <mxGeometry width="30" height="20" as="geometry">
            <mxRectangle width="30" height="20" as="alternateBounds" />
          </mxGeometry>
        </mxCell>
        <mxCell id="sM0PTsSEJLjZ3uQsItN0-43" value="" style="shape=partialRectangle;connectable=0;fillColor=none;top=0;left=0;bottom=0;right=0;align=left;spacingLeft=6;overflow=hidden;whiteSpace=wrap;html=1;" parent="sM0PTsSEJLjZ3uQsItN0-41" vertex="1">
          <mxGeometry x="30" width="230" height="20" as="geometry">
            <mxRectangle width="230" height="20" as="alternateBounds" />
          </mxGeometry>
        </mxCell>
        <mxCell id="sM0PTsSEJLjZ3uQsItN0-45" value="Review" style="shape=table;startSize=30;container=1;collapsible=1;childLayout=tableLayout;fixedRows=1;rowLines=0;fontStyle=1;align=center;resizeLast=1;html=1;" parent="1" vertex="1">
          <mxGeometry x="690" y="170" width="260" height="260" as="geometry" />
        </mxCell>
        <mxCell id="sM0PTsSEJLjZ3uQsItN0-46" value="" style="shape=tableRow;horizontal=0;startSize=0;swimlaneHead=0;swimlaneBody=0;fillColor=none;collapsible=0;dropTarget=0;points=[[0,0.5],[1,0.5]];portConstraint=eastwest;top=0;left=0;right=0;bottom=1;" parent="sM0PTsSEJLjZ3uQsItN0-45" vertex="1">
          <mxGeometry y="30" width="260" height="20" as="geometry" />
        </mxCell>
        <mxCell id="sM0PTsSEJLjZ3uQsItN0-47" value="PK" style="shape=partialRectangle;connectable=0;fillColor=none;top=0;left=0;bottom=0;right=0;fontStyle=1;overflow=hidden;whiteSpace=wrap;html=1;" parent="sM0PTsSEJLjZ3uQsItN0-46" vertex="1">
          <mxGeometry width="30" height="20" as="geometry">
            <mxRectangle width="30" height="20" as="alternateBounds" />
          </mxGeometry>
        </mxCell>
        <mxCell id="sM0PTsSEJLjZ3uQsItN0-48" value="review_id" style="shape=partialRectangle;connectable=0;fillColor=none;top=0;left=0;bottom=0;right=0;align=left;spacingLeft=6;fontStyle=5;overflow=hidden;whiteSpace=wrap;html=1;" parent="sM0PTsSEJLjZ3uQsItN0-46" vertex="1">
          <mxGeometry x="30" width="230" height="20" as="geometry">
            <mxRectangle width="230" height="20" as="alternateBounds" />
          </mxGeometry>
        </mxCell>
        <mxCell id="sM0PTsSEJLjZ3uQsItN0-49" value="" style="shape=tableRow;horizontal=0;startSize=0;swimlaneHead=0;swimlaneBody=0;fillColor=none;collapsible=0;dropTarget=0;points=[[0,0.5],[1,0.5]];portConstraint=eastwest;top=0;left=0;right=0;bottom=0;" parent="sM0PTsSEJLjZ3uQsItN0-45" vertex="1">
          <mxGeometry y="50" width="260" height="190" as="geometry" />
        </mxCell>
        <mxCell id="sM0PTsSEJLjZ3uQsItN0-50" value="" style="shape=partialRectangle;connectable=0;fillColor=none;top=0;left=0;bottom=0;right=0;editable=1;overflow=hidden;whiteSpace=wrap;html=1;" parent="sM0PTsSEJLjZ3uQsItN0-49" vertex="1">
          <mxGeometry width="30" height="190" as="geometry">
            <mxRectangle width="30" height="190" as="alternateBounds" />
          </mxGeometry>
        </mxCell>
        <mxCell id="sM0PTsSEJLjZ3uQsItN0-51" value="&lt;div&gt;&lt;div&gt;property_id: Foreign Key, references Property(property_id)&lt;/div&gt;&lt;div&gt;&lt;br&gt;&lt;/div&gt;&lt;div&gt;user_id: Foreign Key, references User(user_id)&lt;/div&gt;&lt;div&gt;&lt;br&gt;&lt;/div&gt;&lt;div&gt;rating: INTEGER, CHECK: rating &amp;gt;= 1 AND rating &amp;lt;= 5, NOT NULL&lt;/div&gt;&lt;div&gt;&lt;br&gt;&lt;/div&gt;&lt;div&gt;comment: TEXT, NOT NULL&lt;/div&gt;&lt;div&gt;&lt;br&gt;&lt;/div&gt;&lt;div&gt;created_at: TIMESTAMP, DEFAULT CURRENT_TIMESTAMP&lt;/div&gt;&lt;/div&gt;" style="shape=partialRectangle;connectable=0;fillColor=none;top=0;left=0;bottom=0;right=0;align=left;spacingLeft=6;overflow=hidden;whiteSpace=wrap;html=1;" parent="sM0PTsSEJLjZ3uQsItN0-49" vertex="1">
          <mxGeometry x="30" width="230" height="190" as="geometry">
            <mxRectangle width="230" height="190" as="alternateBounds" />
          </mxGeometry>
        </mxCell>
        <mxCell id="sM0PTsSEJLjZ3uQsItN0-52" value="" style="shape=tableRow;horizontal=0;startSize=0;swimlaneHead=0;swimlaneBody=0;fillColor=none;collapsible=0;dropTarget=0;points=[[0,0.5],[1,0.5]];portConstraint=eastwest;top=0;left=0;right=0;bottom=0;" parent="sM0PTsSEJLjZ3uQsItN0-45" vertex="1">
          <mxGeometry y="240" width="260" height="20" as="geometry" />
        </mxCell>
        <mxCell id="sM0PTsSEJLjZ3uQsItN0-53" value="" style="shape=partialRectangle;connectable=0;fillColor=none;top=0;left=0;bottom=0;right=0;editable=1;overflow=hidden;whiteSpace=wrap;html=1;" parent="sM0PTsSEJLjZ3uQsItN0-52" vertex="1">
          <mxGeometry width="30" height="20" as="geometry">
            <mxRectangle width="30" height="20" as="alternateBounds" />
          </mxGeometry>
        </mxCell>
        <mxCell id="sM0PTsSEJLjZ3uQsItN0-54" value="" style="shape=partialRectangle;connectable=0;fillColor=none;top=0;left=0;bottom=0;right=0;align=left;spacingLeft=6;overflow=hidden;whiteSpace=wrap;html=1;" parent="sM0PTsSEJLjZ3uQsItN0-52" vertex="1">
          <mxGeometry x="30" width="230" height="20" as="geometry">
            <mxRectangle width="230" height="20" as="alternateBounds" />
          </mxGeometry>
        </mxCell>
        <mxCell id="sM0PTsSEJLjZ3uQsItN0-55" value="Message" style="shape=table;startSize=30;container=1;collapsible=1;childLayout=tableLayout;fixedRows=1;rowLines=0;fontStyle=1;align=center;resizeLast=1;html=1;" parent="1" vertex="1">
          <mxGeometry x="1190" y="30" width="260" height="200" as="geometry" />
        </mxCell>
        <mxCell id="sM0PTsSEJLjZ3uQsItN0-56" value="" style="shape=tableRow;horizontal=0;startSize=0;swimlaneHead=0;swimlaneBody=0;fillColor=none;collapsible=0;dropTarget=0;points=[[0,0.5],[1,0.5]];portConstraint=eastwest;top=0;left=0;right=0;bottom=1;" parent="sM0PTsSEJLjZ3uQsItN0-55" vertex="1">
          <mxGeometry y="30" width="260" height="20" as="geometry" />
        </mxCell>
        <mxCell id="sM0PTsSEJLjZ3uQsItN0-57" value="PK" style="shape=partialRectangle;connectable=0;fillColor=none;top=0;left=0;bottom=0;right=0;fontStyle=1;overflow=hidden;whiteSpace=wrap;html=1;" parent="sM0PTsSEJLjZ3uQsItN0-56" vertex="1">
          <mxGeometry width="30" height="20" as="geometry">
            <mxRectangle width="30" height="20" as="alternateBounds" />
          </mxGeometry>
        </mxCell>
        <mxCell id="sM0PTsSEJLjZ3uQsItN0-58" value="message_id" style="shape=partialRectangle;connectable=0;fillColor=none;top=0;left=0;bottom=0;right=0;align=left;spacingLeft=6;fontStyle=5;overflow=hidden;whiteSpace=wrap;html=1;" parent="sM0PTsSEJLjZ3uQsItN0-56" vertex="1">
          <mxGeometry x="30" width="230" height="20" as="geometry">
            <mxRectangle width="230" height="20" as="alternateBounds" />
          </mxGeometry>
        </mxCell>
        <mxCell id="sM0PTsSEJLjZ3uQsItN0-59" value="" style="shape=tableRow;horizontal=0;startSize=0;swimlaneHead=0;swimlaneBody=0;fillColor=none;collapsible=0;dropTarget=0;points=[[0,0.5],[1,0.5]];portConstraint=eastwest;top=0;left=0;right=0;bottom=0;" parent="sM0PTsSEJLjZ3uQsItN0-55" vertex="1">
          <mxGeometry y="50" width="260" height="130" as="geometry" />
        </mxCell>
        <mxCell id="sM0PTsSEJLjZ3uQsItN0-60" value="" style="shape=partialRectangle;connectable=0;fillColor=none;top=0;left=0;bottom=0;right=0;editable=1;overflow=hidden;whiteSpace=wrap;html=1;" parent="sM0PTsSEJLjZ3uQsItN0-59" vertex="1">
          <mxGeometry width="30" height="130" as="geometry">
            <mxRectangle width="30" height="130" as="alternateBounds" />
          </mxGeometry>
        </mxCell>
        <mxCell id="sM0PTsSEJLjZ3uQsItN0-61" value="&lt;div&gt;sender_id: Foreign Key, references User(user_id)&lt;/div&gt;&lt;div&gt;&lt;br&gt;&lt;/div&gt;&lt;div&gt;recipient_id: Foreign Key, references User(user_id)&lt;/div&gt;&lt;div&gt;&lt;br&gt;&lt;/div&gt;&lt;div&gt;message_body: TEXT, NOT NULL&lt;/div&gt;&lt;div&gt;&lt;br&gt;&lt;/div&gt;&lt;div&gt;sent_at: TIMESTAMP, DEFAULT CURRENT_TIMESTAMP&lt;/div&gt;" style="shape=partialRectangle;connectable=0;fillColor=none;top=0;left=0;bottom=0;right=0;align=left;spacingLeft=6;overflow=hidden;whiteSpace=wrap;html=1;" parent="sM0PTsSEJLjZ3uQsItN0-59" vertex="1">
          <mxGeometry x="30" width="230" height="130" as="geometry">
            <mxRectangle width="230" height="130" as="alternateBounds" />
          </mxGeometry>
        </mxCell>
        <mxCell id="sM0PTsSEJLjZ3uQsItN0-62" value="" style="shape=tableRow;horizontal=0;startSize=0;swimlaneHead=0;swimlaneBody=0;fillColor=none;collapsible=0;dropTarget=0;points=[[0,0.5],[1,0.5]];portConstraint=eastwest;top=0;left=0;right=0;bottom=0;" parent="sM0PTsSEJLjZ3uQsItN0-55" vertex="1">
          <mxGeometry y="180" width="260" height="20" as="geometry" />
        </mxCell>
        <mxCell id="sM0PTsSEJLjZ3uQsItN0-63" value="" style="shape=partialRectangle;connectable=0;fillColor=none;top=0;left=0;bottom=0;right=0;editable=1;overflow=hidden;whiteSpace=wrap;html=1;" parent="sM0PTsSEJLjZ3uQsItN0-62" vertex="1">
          <mxGeometry width="30" height="20" as="geometry">
            <mxRectangle width="30" height="20" as="alternateBounds" />
          </mxGeometry>
        </mxCell>
        <mxCell id="sM0PTsSEJLjZ3uQsItN0-64" value="" style="shape=partialRectangle;connectable=0;fillColor=none;top=0;left=0;bottom=0;right=0;align=left;spacingLeft=6;overflow=hidden;whiteSpace=wrap;html=1;" parent="sM0PTsSEJLjZ3uQsItN0-62" vertex="1">
          <mxGeometry x="30" width="230" height="20" as="geometry">
            <mxRectangle width="230" height="20" as="alternateBounds" />
          </mxGeometry>
        </mxCell>
        <mxCell id="gPapIOqgQKF7kJC028HQ-2" style="edgeStyle=orthogonalEdgeStyle;rounded=0;orthogonalLoop=1;jettySize=auto;html=1;endArrow=ERmandOne;endFill=0;startArrow=ERzeroToMany;startFill=0;exitX=0.808;exitY=0.966;exitDx=0;exitDy=0;exitPerimeter=0;" edge="1" parent="1" source="sM0PTsSEJLjZ3uQsItN0-8">
          <mxGeometry relative="1" as="geometry">
            <mxPoint x="880" y="580" as="targetPoint" />
            <mxPoint x="290" y="371.6161838107639" as="sourcePoint" />
            <Array as="points">
              <mxPoint x="310" y="540" />
              <mxPoint x="880" y="540" />
            </Array>
          </mxGeometry>
        </mxCell>
        <mxCell id="gPapIOqgQKF7kJC028HQ-12" style="edgeStyle=orthogonalEdgeStyle;rounded=0;orthogonalLoop=1;jettySize=auto;html=1;exitX=1;exitY=0.5;exitDx=0;exitDy=0;entryX=0.009;entryY=0.401;entryDx=0;entryDy=0;entryPerimeter=0;startArrow=ERzeroToMany;startFill=0;endArrow=ERmandOne;endFill=0;" edge="1" parent="1" source="sM0PTsSEJLjZ3uQsItN0-5" target="sM0PTsSEJLjZ3uQsItN0-49">
          <mxGeometry relative="1" as="geometry" />
        </mxCell>
        <mxCell id="gPapIOqgQKF7kJC028HQ-13" style="edgeStyle=orthogonalEdgeStyle;rounded=0;orthogonalLoop=1;jettySize=auto;html=1;entryX=0.996;entryY=-0.016;entryDx=0;entryDy=0;entryPerimeter=0;startArrow=ERmany;startFill=0;endArrow=ERmany;endFill=0;" edge="1" parent="1" target="sM0PTsSEJLjZ3uQsItN0-5">
          <mxGeometry relative="1" as="geometry">
            <mxPoint x="1190" y="96" as="sourcePoint" />
            <Array as="points">
              <mxPoint x="1190" y="96" />
            </Array>
          </mxGeometry>
        </mxCell>
        <mxCell id="gPapIOqgQKF7kJC028HQ-14" style="edgeStyle=orthogonalEdgeStyle;rounded=0;orthogonalLoop=1;jettySize=auto;html=1;exitX=1;exitY=0.5;exitDx=0;exitDy=0;entryX=0.5;entryY=0;entryDx=0;entryDy=0;startArrow=ERmandOne;startFill=0;endArrow=ERzeroToMany;endFill=0;" edge="1" parent="1" source="sM0PTsSEJLjZ3uQsItN0-49" target="sM0PTsSEJLjZ3uQsItN0-14">
          <mxGeometry relative="1" as="geometry" />
        </mxCell>
        <mxCell id="gPapIOqgQKF7kJC028HQ-15" style="edgeStyle=orthogonalEdgeStyle;rounded=0;orthogonalLoop=1;jettySize=auto;html=1;entryX=0.574;entryY=0.968;entryDx=0;entryDy=0;entryPerimeter=0;exitX=0.431;exitY=0.994;exitDx=0;exitDy=0;exitPerimeter=0;startArrow=ERoneToMany;startFill=0;endArrow=ERone;endFill=0;" edge="1" parent="1" source="sM0PTsSEJLjZ3uQsItN0-31" target="sM0PTsSEJLjZ3uQsItN0-21">
          <mxGeometry relative="1" as="geometry">
            <mxPoint x="880" y="1010" as="sourcePoint" />
            <Array as="points">
              <mxPoint x="872" y="1010" />
              <mxPoint x="1351" y="1010" />
              <mxPoint x="1351" y="779" />
            </Array>
          </mxGeometry>
        </mxCell>
        <mxCell id="gPapIOqgQKF7kJC028HQ-16" style="edgeStyle=orthogonalEdgeStyle;rounded=0;orthogonalLoop=1;jettySize=auto;html=1;startArrow=ERmandOne;startFill=0;endArrow=ERmandOne;endFill=0;" edge="1" parent="1" source="sM0PTsSEJLjZ3uQsItN0-38" target="sM0PTsSEJLjZ3uQsItN0-28">
          <mxGeometry relative="1" as="geometry">
            <Array as="points">
              <mxPoint x="650" y="780" />
              <mxPoint x="650" y="780" />
            </Array>
          </mxGeometry>
        </mxCell>
      </root>
    </mxGraphModel>
  </diagram>
</mxfile>
